<svg width="1304" height="368" viewBox="0 0 1304 368" fill="none" xmlns="http://www.w3.org/2000/svg">
<path d="M101.6 97.34H25.58C28.42 109.21 38.6901 116.66 52.6901 116.66C62.4401 116.66 68.2801 114 74.3101 106.91H100C93.4401 127.11 73.0601 138.28 53.2201 138.28C23.2701 138.28 0.0600586 115.95 0.0600586 87.24C0.0600586 58.35 22.92 35.5 51.8 35.5C81.04 35.5 102.48 57.83 102.48 88.31C102.48 91.85 102.3 93.98 101.6 97.34ZM52.1601 57.12C38.1601 57.12 28.5901 64.03 24.8701 76.61H79.2701C76.2601 64.03 66.6901 57.12 52.1601 57.12Z" fill="black"/>
<path d="M162.21 135.97H143.42L103.9 37.7998H130.13L152.81 102.84L175.14 37.7998H201.72L162.21 135.97Z" fill="black"/>
<path d="M304.51 97.34H228.49C231.33 109.21 241.6 116.66 255.6 116.66C265.35 116.66 271.19 114 277.22 106.91H302.92C296.36 127.11 275.98 138.28 256.14 138.28C226.19 138.28 202.98 115.95 202.98 87.24C202.98 58.35 225.84 35.5 254.72 35.5C283.96 35.5 305.4 57.83 305.4 88.31C305.4 91.85 305.22 93.98 304.51 97.34ZM255.07 57.12C241.07 57.12 231.5 64.03 227.78 76.61H282.18C279.17 64.03 269.6 57.12 255.07 57.12Z" fill="black"/>
<path d="M344.21 81.39V135.97H320.64V37.8H342.26V47.37C348.46 38.33 353.42 35.5 363.53 35.5H365.3V58.18C351.13 58.53 344.21 66.15 344.21 81.39Z" fill="black"/>
<path d="M377.35 135.97V5.02002H400.92V135.98H377.35V135.97Z" fill="black"/>
<path d="M419.89 135.97V37.7998H443.46V135.97H419.89ZM420.06 23.6198V0.0498047H443.63V23.6198H420.06Z" fill="black"/>
<path d="M666.04 97.34H590.02C592.86 109.21 603.13 116.66 617.13 116.66C626.88 116.66 632.72 114 638.75 106.91H664.45C657.89 127.11 637.51 138.28 617.67 138.28C587.72 138.28 564.51 115.95 564.51 87.24C564.51 58.35 587.37 35.5 616.25 35.5C645.49 35.5 666.93 57.83 666.93 88.31C666.92 91.85 666.74 93.98 666.04 97.34ZM616.59 57.12C602.59 57.12 593.02 64.03 589.3 76.61H643.7C640.69 64.03 631.12 57.12 616.59 57.12Z" fill="black"/>
<path d="M168.25 216.27V293H144.68V216.27H133.16V194.83H144.68V162.05H168.25V194.83H182.43V216.27H168.25Z" fill="black"/>
<path d="M289.81 254.37H213.79C216.63 266.24 226.9 273.69 240.9 273.69C250.65 273.69 256.49 271.03 262.52 263.94H288.22C281.66 284.14 261.28 295.31 241.44 295.31C211.49 295.31 188.28 272.98 188.28 244.27C188.28 215.38 211.14 192.53 240.02 192.53C269.26 192.53 290.7 214.86 290.7 245.34C290.7 248.88 290.52 251 289.81 254.37ZM240.37 214.14C226.37 214.14 216.8 221.05 213.08 233.63H267.48C264.47 221.05 254.9 214.14 240.37 214.14Z" fill="black"/>
<path d="M354.15 295.3C325.09 295.3 301.7 272.44 301.7 243.91C301.7 215.02 324.38 192.52 353.44 192.52C375.77 192.52 395.26 205.1 402.88 227.61H376.3C371.51 218.57 364.07 214.14 353.44 214.14C337.14 214.14 325.44 226.54 325.44 243.73C325.44 260.92 337.67 273.68 353.97 273.68C363.72 273.68 370.45 269.78 376.3 260.74H402.88C394.73 282.72 377.01 295.3 354.15 295.3Z" fill="black"/>
<path d="M482.81 293V242.85C482.81 222.29 477.49 214.14 463.67 214.14C450.2 214.14 442.94 221.58 442.94 243.2V293H419.37V162.04H442.94V201.56C450.03 195.18 457.83 192.35 467.93 192.35C491.5 192.35 506.39 205.29 506.39 237.54V293H482.81Z" fill="black"/>
<path d="M744.65 295.3C715.94 295.3 692.55 272.26 692.55 243.91C692.55 215.73 715.94 192.52 744.47 192.52C774.06 192.52 796.92 215.38 796.92 244.62C796.92 272.27 773.18 295.3 744.65 295.3ZM744.65 214.14C729.23 214.14 716.3 227.43 716.3 243.56C716.3 260.4 728.88 273.69 744.83 273.69C760.42 273.69 773.18 260.4 773.18 243.92C773.18 227.61 760.42 214.14 744.65 214.14Z" fill="black"/>
<path d="M810.22 293V162.04H833.79V293H810.22Z" fill="black"/>
<path d="M900.6 295.3C871.89 295.3 848.5 272.26 848.5 243.91C848.5 215.73 871.89 192.52 900.42 192.52C930.01 192.52 952.87 215.38 952.87 244.62C952.87 272.27 929.13 295.3 900.6 295.3ZM900.6 214.14C885.18 214.14 872.25 227.43 872.25 243.56C872.25 260.4 884.83 273.69 900.78 273.69C916.37 273.69 929.13 260.4 929.13 243.92C929.13 227.61 916.37 214.14 900.6 214.14Z" fill="black"/>
<path d="M1014.02 332.16C989.92 332.16 971.49 320.64 963.52 300.97H990.28C997.19 308.59 1003.92 311.43 1014.91 311.43C1032.45 311.43 1041.49 301.15 1042.38 280.06C1033.17 290.87 1023.95 295.3 1010.13 295.3C982.13 295.3 961.93 273.5 961.93 243.2C961.93 214.14 982.49 192.52 1010.31 192.52C1024.49 192.52 1035.12 197.3 1042.38 207.23V194.83H1064.89V274.4C1064.88 316.57 1044.5 332.16 1014.02 332.16ZM1012.96 214.14C996.48 214.14 985.67 226.19 985.67 244.27C985.67 262.17 996.48 273.69 1013.31 273.69C1030.14 273.69 1041.31 261.99 1041.31 244.27C1041.31 226.37 1029.79 214.14 1012.96 214.14Z" fill="black"/>
<path d="M1083.13 293V194.83H1106.7V293H1083.13ZM1083.31 180.65V157.08H1106.88V180.65H1083.31Z" fill="black"/>
<path d="M1222.95 254.37H1146.93C1149.77 266.24 1160.04 273.69 1174.04 273.69C1183.79 273.69 1189.63 271.03 1195.66 263.94H1221.36C1214.8 284.14 1194.42 295.31 1174.58 295.31C1144.63 295.31 1121.42 272.98 1121.42 244.27C1121.42 215.38 1144.28 192.53 1173.16 192.53C1202.4 192.53 1223.84 214.86 1223.84 245.34C1223.84 248.88 1223.66 251 1222.95 254.37ZM1173.51 214.14C1159.51 214.14 1149.94 221.05 1146.22 233.63H1200.62C1197.61 221.05 1188.04 214.14 1173.51 214.14Z" fill="black"/>
<path d="M1268.86 295.3C1249.37 295.3 1235.37 284.67 1232.89 261.81H1256.64C1258.94 270.14 1262.84 273.68 1269.75 273.68C1275.78 273.68 1280.38 269.6 1280.38 264.11C1280.38 258.44 1279.49 256.84 1263.72 251.53C1244.23 244.97 1236.43 236.82 1236.43 222.47C1236.43 205.64 1250.78 192.52 1269.04 192.52C1285.7 192.52 1300.41 203.51 1301.29 221.94H1278.25C1277.19 216.8 1274 214.14 1269.04 214.14C1263.9 214.14 1260 217.68 1260 222.47C1260 227.61 1260.53 227.96 1276.66 233.1C1297.22 239.48 1303.95 247.28 1303.95 261.81C1303.95 280.6 1288.53 295.3 1268.86 295.3Z" fill="black"/>
<path d="M505.96 61.3801C516.98 61.3801 525.92 70.3201 525.92 81.3401L526.01 191.23H549.6L549.51 81.3401C549.51 57.2801 530.01 37.79 505.96 37.79H505.95C481.9 37.79 462.41 57.2801 462.41 81.3401V136.05H486V81.3301C486 70.3201 494.94 61.3801 505.96 61.3801Z" fill="#C60606"/>
<path d="M613.21 192.53L613.15 226.33V226.55L613.12 283.21C613.05 296.9 606.65 309.08 596.72 316.99C589.28 322.96 579.84 326.51 569.57 326.51C557.55 326.51 546.65 321.63 538.78 313.75C530.9 305.88 526.02 294.98 526.02 282.96V183.01H549.61V282.96C549.61 293.98 558.55 302.92 569.57 302.92C580.52 302.92 589.41 294.1 589.53 283.18L589.56 226.56V226.31C589.63 212.62 596.03 200.44 605.96 192.53H613.21Z" fill="#C60606"/>
<path d="M676.67 226.56V293H653.1V226.54C653.1 215.52 644.16 206.58 633.14 206.58H633.13C622.18 206.58 613.29 215.4 613.17 226.32V226.54L613.14 283.2C613.07 296.89 606.67 309.07 596.74 316.98H589.49L589.55 283.17L589.58 226.55V226.3C589.65 212.61 596.05 200.43 605.98 192.52C613.42 186.55 622.86 183 633.13 183H633.14C657.18 183.01 676.67 202.5 676.67 226.56Z" fill="#C60606"/>
<path d="M506.01 29.6196C514.173 29.6196 520.79 23.0024 520.79 14.8396C520.79 6.67683 514.173 0.0595703 506.01 0.0595703C497.847 0.0595703 491.23 6.67683 491.23 14.8396C491.23 23.0024 497.847 29.6196 506.01 29.6196Z" fill="#C60606"/>
<path d="M569.62 367.44C577.783 367.44 584.4 360.823 584.4 352.66C584.4 344.497 577.783 337.88 569.62 337.88C561.457 337.88 554.84 344.497 554.84 352.66C554.84 360.823 561.457 367.44 569.62 367.44Z" fill="#C60606"/>
</svg>
