<?xml version="1.0" encoding="utf-8"?>
<!-- Generator: Adobe Illustrator 24.3.0, SVG Export Plug-In . SVG Version: 6.00 Build 0)  -->
<svg version="1.1" id="Layer_1" xmlns="http://www.w3.org/2000/svg" xmlns:xlink="http://www.w3.org/1999/xlink" x="0px" y="0px"
	viewBox="0 0 2000 2000" style="enable-background:new 0 0 2000 2000;" xml:space="preserve">
<style type="text/css">
	.st0{display:none;}
	.st1{display:inline;}
	.st2{fill:#C60606;}
	.st3{display:inline;fill:#C60606;}
	.st4{opacity:0.2;}
	.st5{fill:#FFFFFF;}
	.st6{display:inline;fill:#FFFFFF;}
</style>
<g>
	<g>
		<path d="M449.6,912.34h-76.02c2.84,11.87,13.11,19.32,27.11,19.32c9.75,0,15.59-2.66,21.62-9.75H448
			c-6.56,20.2-26.94,31.37-46.78,31.37c-29.95,0-53.16-22.33-53.16-51.04c0-28.89,22.86-51.74,51.74-51.74
			c29.24,0,50.68,22.33,50.68,52.81C450.48,906.85,450.3,908.98,449.6,912.34z M400.16,872.12c-14,0-23.57,6.91-27.29,19.49h54.4
			C424.26,879.03,414.69,872.12,400.16,872.12z"/>
		<path d="M510.21,950.97h-18.79l-39.52-98.17h26.23l22.68,65.04l22.33-65.04h26.58L510.21,950.97z"/>
		<path d="M652.51,912.34h-76.02c2.84,11.87,13.11,19.32,27.11,19.32c9.75,0,15.59-2.66,21.62-9.75h25.7
			c-6.56,20.2-26.94,31.37-46.78,31.37c-29.95,0-53.16-22.33-53.16-51.04c0-28.89,22.86-51.74,51.74-51.74
			c29.24,0,50.68,22.33,50.68,52.81C653.4,906.85,653.22,908.98,652.51,912.34z M603.07,872.12c-14,0-23.57,6.91-27.29,19.49h54.4
			C627.17,879.03,617.6,872.12,603.07,872.12z"/>
		<path d="M692.21,896.39v54.58h-23.57V852.8h21.62v9.57c6.2-9.04,11.16-11.87,21.27-11.87h1.77v22.68
			C699.13,873.53,692.21,881.15,692.21,896.39z"/>
		<path d="M725.35,950.97V820.02h23.57v130.96H725.35z"/>
		<path d="M767.89,950.97V852.8h23.57v98.17H767.89z M768.06,838.62v-23.57h23.57v23.57H768.06z"/>
		<path d="M1014.04,912.34h-76.02c2.84,11.87,13.11,19.32,27.11,19.32c9.75,0,15.59-2.66,21.62-9.75h25.7
			c-6.56,20.2-26.94,31.37-46.78,31.37c-29.95,0-53.16-22.33-53.16-51.04c0-28.89,22.86-51.74,51.74-51.74
			c29.24,0,50.68,22.33,50.68,52.81C1014.92,906.85,1014.74,908.98,1014.04,912.34z M964.59,872.12c-14,0-23.57,6.91-27.29,19.49
			h54.4C988.69,879.03,979.12,872.12,964.59,872.12z"/>
	</g>
	<g>
		<path d="M516.25,1031.27V1108h-23.57v-76.73h-11.52v-21.44h11.52v-32.78h23.57v32.78h14.18v21.44H516.25z"/>
		<path d="M637.81,1069.37h-76.02c2.84,11.87,13.11,19.32,27.11,19.32c9.75,0,15.59-2.66,21.62-9.75h25.7
			c-6.56,20.2-26.94,31.37-46.78,31.37c-29.95,0-53.16-22.33-53.16-51.04c0-28.89,22.86-51.74,51.74-51.74
			c29.24,0,50.68,22.33,50.68,52.81C638.7,1063.88,638.52,1066,637.81,1069.37z M588.37,1029.14c-14,0-23.57,6.91-27.29,19.49h54.4
			C612.47,1036.05,602.9,1029.14,588.37,1029.14z"/>
		<path d="M702.15,1110.3c-29.06,0-52.45-22.86-52.45-51.39c0-28.89,22.68-51.39,51.74-51.39c22.33,0,41.82,12.58,49.44,35.09H724.3
			c-4.79-9.04-12.23-13.47-22.86-13.47c-16.3,0-28,12.4-28,29.59c0,17.19,12.23,29.95,28.53,29.95c9.75,0,16.48-3.9,22.33-12.94
			h26.58C742.73,1097.72,725.01,1110.3,702.15,1110.3z"/>
		<path d="M830.81,1108v-50.15c0-20.56-5.32-28.71-19.14-28.71c-13.47,0-20.73,7.44-20.73,29.06v49.8h-23.57V977.04h23.57v39.52
			c7.09-6.38,14.89-9.21,24.99-9.21c23.57,0,38.46,12.94,38.46,45.19V1108H830.81z"/>
		<path d="M1092.65,1110.3c-28.71,0-52.1-23.04-52.1-51.39c0-28.18,23.39-51.39,51.92-51.39c29.59,0,52.45,22.86,52.45,52.1
			C1144.92,1087.27,1121.18,1110.3,1092.65,1110.3z M1092.65,1029.14c-15.42,0-28.35,13.29-28.35,29.42
			c0,16.84,12.58,30.13,28.53,30.13c15.59,0,28.35-13.29,28.35-29.77C1121.18,1042.61,1108.42,1029.14,1092.65,1029.14z"/>
		<path d="M1158.22,1108V977.04h23.57V1108H1158.22z"/>
		<path d="M1248.6,1110.3c-28.71,0-52.1-23.04-52.1-51.39c0-28.18,23.39-51.39,51.92-51.39c29.59,0,52.45,22.86,52.45,52.1
			C1300.87,1087.27,1277.13,1110.3,1248.6,1110.3z M1248.6,1029.14c-15.42,0-28.35,13.29-28.35,29.42
			c0,16.84,12.58,30.13,28.53,30.13c15.59,0,28.35-13.29,28.35-29.77C1277.13,1042.61,1264.37,1029.14,1248.6,1029.14z"/>
		<path d="M1362.02,1147.16c-24.1,0-42.53-11.52-50.5-31.19h26.76c6.91,7.62,13.64,10.46,24.63,10.46
			c17.54,0,26.58-10.28,27.47-31.37c-9.21,10.81-18.43,15.24-32.25,15.24c-28,0-48.2-21.8-48.2-52.1
			c0-29.06,20.56-50.68,48.38-50.68c14.18,0,24.81,4.78,32.07,14.71v-12.4h22.51v79.57
			C1412.88,1131.57,1392.5,1147.16,1362.02,1147.16z M1360.96,1029.14c-16.48,0-27.29,12.05-27.29,30.13
			c0,17.9,10.81,29.42,27.64,29.42c16.83,0,28-11.7,28-29.42C1389.31,1041.37,1377.79,1029.14,1360.96,1029.14z"/>
		<path d="M1431.13,1108v-98.17h23.57V1108H1431.13z M1431.31,995.65v-23.57h23.57v23.57H1431.31z"/>
		<path d="M1570.95,1069.37h-76.02c2.84,11.87,13.11,19.32,27.11,19.32c9.75,0,15.59-2.66,21.62-9.75h25.7
			c-6.56,20.2-26.94,31.37-46.78,31.37c-29.95,0-53.16-22.33-53.16-51.04c0-28.89,22.86-51.74,51.74-51.74
			c29.24,0,50.68,22.33,50.68,52.81C1571.84,1063.88,1571.66,1066,1570.95,1069.37z M1521.51,1029.14c-14,0-23.57,6.91-27.29,19.49
			h54.4C1545.61,1036.05,1536.04,1029.14,1521.51,1029.14z"/>
		<path d="M1616.86,1110.3c-19.49,0-33.49-10.63-35.97-33.49h23.75c2.3,8.33,6.2,11.87,13.11,11.87c6.03,0,10.63-4.08,10.63-9.57
			c0-5.67-0.89-7.27-16.66-12.58c-19.49-6.56-27.29-14.71-27.29-29.06c0-16.83,14.35-29.95,32.61-29.95
			c16.66,0,31.37,10.99,32.25,29.42h-23.04c-1.06-5.14-4.25-7.8-9.21-7.8c-5.14,0-9.04,3.54-9.04,8.33c0,5.14,0.53,5.49,16.66,10.63
			c20.56,6.38,27.29,14.18,27.29,28.71C1651.95,1095.6,1636.53,1110.3,1616.86,1110.3z"/>
	</g>
	<path class="st2" d="M853.96,876.38c11.02,0,19.96,8.94,19.96,19.96l0.09,109.89h23.59l-0.09-109.89
		c0-24.06-19.5-43.55-43.55-43.55h-0.01c-24.05,0-43.54,19.49-43.54,43.55v54.71H834v-54.72C834,885.32,842.94,876.38,853.96,876.38
		L853.96,876.38z"/>
	<path class="st2" d="M961.21,1007.53l-0.06,33.8v0.22l-0.03,56.66c-0.07,13.69-6.47,25.87-16.4,33.78
		c-7.44,5.97-16.88,9.52-27.15,9.52c-12.02,0-22.92-4.88-30.79-12.76c-7.88-7.87-12.76-18.77-12.76-30.79v-99.95h23.59v99.95
		c0,11.02,8.94,19.96,19.96,19.96c10.95,0,19.84-8.82,19.96-19.74l0.03-56.62v-0.25c0.07-13.69,6.47-25.87,16.4-33.78H961.21z"/>
	<path class="st2" d="M1024.67,1041.56V1108h-23.57v-66.46c0-11.02-8.94-19.96-19.96-19.96h-0.01c-10.95,0-19.84,8.82-19.96,19.74
		v0.22l-0.03,56.66c-0.07,13.69-6.47,25.87-16.4,33.78h-7.25l0.06-33.81l0.03-56.62v-0.25c0.07-13.69,6.47-25.87,16.4-33.78
		c7.44-5.97,16.88-9.52,27.15-9.52h0.01C1005.18,998.01,1024.67,1017.5,1024.67,1041.56z"/>
	<circle class="st2" cx="854.01" cy="829.84" r="14.78"/>
	<circle class="st2" cx="917.62" cy="1167.66" r="14.78"/>
</g>
</svg>
